<?xml version="1.0" encoding="UTF-8" standalone="no"?>
<svg width="248px" height="287px" viewBox="0 0 248 287" version="1.1" xmlns="http://www.w3.org/2000/svg" xmlns:xlink="http://www.w3.org/1999/xlink" xmlns:sketch="http://www.bohemiancoding.com/sketch/ns">
    <!-- Generator: Sketch 3.4.3 (16044) - http://www.bohemiancoding.com/sketch -->
    <title>Page 1</title>
    <desc>Created with Sketch.</desc>
    <defs></defs>
    <g id="Page-1" stroke="none" stroke-width="1" fill="none" fill-rule="evenodd" sketch:type="MSPage">
        <g sketch:type="MSLayerGroup" fill="#71DBB2">
            <path d="M123.9921,0.6542 L0.0001,72.2402 L0.0001,215.4142 L123.9921,287.0002 L247.9831,215.4142 L247.9831,72.2402 L123.9921,0.6542 Z M126.0051,14.5182 L221.9561,69.9162 L94.0211,69.9162 L126.0051,14.5182 Z M11.0001,78.5912 L108.9661,22.0312 L11.0001,191.7112 L11.0001,78.5912 Z M91.4941,80.9162 L236.9831,80.9162 L236.9831,145.2522 L144.8291,145.2522 L144.8291,150.2522 L236.9831,150.2522 L236.9831,158.0022 L144.8291,158.0022 L144.8291,163.0012 L236.9831,163.0012 L236.9831,170.7522 L144.8291,170.7522 L144.8291,175.7522 L236.9831,175.7522 L236.9831,183.5022 L144.8291,183.5022 L144.8291,188.5022 L236.9831,188.5022 L236.9831,196.2522 L144.8291,196.2522 L144.8291,201.2512 L236.9831,201.2512 L236.9831,209.0622 L128.3711,271.7702 L91.4941,80.9162 Z M13.0131,210.2242 L82.1411,90.4932 L116.8611,270.1822 L13.0131,210.2242 Z" id="Fill-1" sketch:type="MSShapeGroup"></path>
            <path d="M113.7605,112.8748 L125.5735,117.4138 L125.5735,114.1648 L121.2355,112.7628 L117.7645,111.5838 L117.7645,111.4738 L121.2355,110.2718 L125.5735,108.8928 L125.5735,105.6438 L113.7605,110.1828 L113.7605,112.8748 Z" id="Fill-2" sketch:type="MSShapeGroup"></path>
            <path d="M133.4501,119.9717 L137.4321,119.9717 L137.4321,113.6537 L143.0831,113.6537 L143.0831,110.3387 L137.4321,110.3387 L137.4321,106.7127 L144.0181,106.7127 L144.0181,103.4197 L133.4501,103.4197 L133.4501,119.9717 Z" id="Fill-3" sketch:type="MSShapeGroup"></path>
            <g id="Group-16" transform="translate(145.000000, 105.000000)" sketch:type="MSShapeGroup">
                <path d="M6.4492,5.0272 C7.8952,5.0272 8.4512,5.9612 8.4512,7.2302 L4.1362,7.2302 C4.4032,5.7172 5.3592,5.0272 6.4492,5.0272 M6.8052,15.2832 C8.2962,15.2832 10.0312,14.7712 11.3442,13.8372 L10.0312,11.4572 C9.1192,11.9912 8.2732,12.2572 7.3612,12.2572 C5.7592,12.2572 4.5582,11.5452 4.2022,9.8102 L11.6332,9.8102 C11.7222,9.5212 11.8112,8.8092 11.8112,8.1192 C11.8112,4.6492 10.0312,2.0012 6.3822,2.0012 C3.3122,2.0012 0.3752,4.5372 0.3752,8.6542 C0.3752,12.8362 3.1792,15.2832 6.8052,15.2832" id="Fill-4"></path>
                <path d="M18.2855,7.7408 C18.9535,6.0728 20.0875,5.4718 21.0215,5.4718 C21.5785,5.4718 21.9565,5.5608 22.4015,5.6718 L23.0685,2.2688 C22.7125,2.1128 22.2905,2.0018 21.5335,2.0018 C20.2655,2.0018 18.8635,2.8248 17.9295,4.5158 L17.8405,4.5158 L17.5735,2.3128 L14.3475,2.3128 L14.3475,14.9718 L18.2855,14.9718 L18.2855,7.7408 Z" id="Fill-6"></path>
                <path d="M27.4747,15.3495 C27.8747,15.4615 28.3647,15.5055 29.2767,15.5055 L30.4777,15.5055 C31.6567,15.5055 32.3247,15.6615 32.3247,16.4175 C32.3247,17.2195 31.1897,17.8195 29.5657,17.8195 C27.9417,17.8195 26.8737,17.3745 26.8737,16.4845 C26.8737,16.0615 27.0737,15.7055 27.4747,15.3495 M29.2547,4.6495 C30.1887,4.6495 30.8557,5.3165 30.8557,6.6065 C30.8557,7.9195 30.1887,8.5865 29.2547,8.5865 C28.3417,8.5865 27.6527,7.9195 27.6527,6.6065 C27.6527,5.3165 28.3417,4.6495 29.2547,4.6495 M23.6257,17.1075 C23.6257,19.3765 26.0287,20.2895 28.9427,20.2895 C33.3477,20.2895 36.1067,18.3985 36.1067,15.7285 C36.1067,13.4365 34.3487,12.4795 31.2347,12.4795 L29.2317,12.4795 C27.8747,12.4795 27.3637,12.2135 27.3637,11.6345 C27.3637,11.2115 27.4747,11.0115 27.7637,10.7445 C28.3197,10.9005 28.8317,10.9675 29.2547,10.9675 C32.0577,10.9675 34.3047,9.6765 34.3047,6.7185 C34.3047,6.1165 34.1487,5.5395 33.9487,5.1825 L35.9067,5.1825 L35.9067,2.3125 L31.2567,2.3125 C30.6787,2.1125 29.9887,2.0015 29.2547,2.0015 C26.5177,2.0015 23.9597,3.5145 23.9597,6.6065 C23.9597,8.0745 24.7827,9.2545 25.6727,9.8765 L25.6727,9.9655 C24.8497,10.5445 24.2707,11.4345 24.2707,12.3235 C24.2707,13.3925 24.7597,14.0595 25.4277,14.5045 L25.4277,14.6165 C24.2487,15.2165 23.6257,16.0615 23.6257,17.1075" id="Fill-8"></path>
                <path d="M41.9138,15.2833 C43.6498,15.2833 44.8288,14.4823 45.8738,13.2363 L45.9628,13.2363 L46.2518,14.9713 L49.4778,14.9713 L49.4778,2.3123 L45.5178,2.3123 L45.5178,10.6113 C44.8508,11.5453 44.2938,11.9013 43.4048,11.9013 C42.4038,11.9013 41.9358,11.4123 41.9358,9.6543 L41.9358,2.3123 L37.9768,2.3123 L37.9768,10.1433 C37.9768,13.3033 39.1558,15.2833 41.9138,15.2833" id="Fill-10"></path>
                <path d="M56.5316,12.3687 C55.5306,12.3687 54.4846,11.9237 53.3276,11.0347 L51.5706,13.5037 C52.8386,14.5717 54.7956,15.2837 56.4426,15.2837 C59.8906,15.2837 61.7146,13.4807 61.7146,11.1447 C61.7146,8.8537 59.9576,7.9417 58.3776,7.3407 C57.0656,6.8737 55.9086,6.5837 55.9086,5.8287 C55.9086,5.2277 56.3536,4.9157 57.2436,4.9157 C58.0886,4.9157 58.9786,5.3607 59.8686,5.9837 L61.6486,3.6257 C60.5356,2.8017 59.1126,2.0017 57.1096,2.0017 C54.1736,2.0017 52.2156,3.6257 52.2156,6.0287 C52.2156,8.1197 53.9956,9.1437 55.5076,9.7437 C56.7986,10.2557 58.0216,10.6107 58.0216,11.3677 C58.0216,11.9907 57.5776,12.3687 56.5316,12.3687" id="Fill-12"></path>
                <path d="M80.181,5.1826 L68.368,0.6436 L68.368,3.8926 L72.706,5.2716 L76.177,6.4736 L76.177,6.5836 L72.706,7.7636 L68.368,9.1646 L68.368,12.4136 L80.181,7.8746 L80.181,5.1826 Z" id="Fill-14"></path>
            </g>
        </g>
    </g>
</svg>